HIERARCHY
ROOT RootJoint
{
    OFFSET   0.000000   0.000000   0.000000
    CHANNELS 6 Xposition Yposition Zposition Xrotation Yrotation Zrotation
    JOINT pelvis_lowerback
    {
        OFFSET   0.000000   0.093605   0.000000
        CHANNELS 3 Xrotation Yrotation Zrotation
        JOINT lowerback_torso
        {
            OFFSET   0.000000   0.100000   0.000000
            CHANNELS 3 Xrotation Yrotation Zrotation
            JOINT torso_head
            {
                OFFSET   0.000000   0.282350   0.000000
                CHANNELS 3 Xrotation Yrotation Zrotation
                End Site
                {
                    OFFSET   0.000000   0.192650   0.000000
                }
            }
            JOINT rTorso_Clavicle
            {
                OFFSET  -0.001000   0.157500   0.000000
                CHANNELS 3 Xrotation Yrotation Zrotation
                JOINT rShoulder
                {
                    OFFSET  -0.117647   0.000000   0.000000
                    CHANNELS 3 Xrotation Yrotation Zrotation
                    JOINT rElbow
                    {
                        OFFSET  -0.245000   0.000000   0.000000
                        CHANNELS 3 Xrotation Yrotation Zrotation
                        JOINT rWrist
                        {
                            OFFSET  -0.240000   0.000000   0.000000
                            CHANNELS 3 Xrotation Yrotation Zrotation
                            End Site
                            {
                                OFFSET  -0.116353  -0.002500   0.000000
                            }
                        }
                    }
                }
            }
            JOINT lTorso_Clavicle
            {
                OFFSET   0.001000   0.157500   0.000000
                CHANNELS 3 Xrotation Yrotation Zrotation
                JOINT lShoulder
                {
                    OFFSET   0.117647   0.000000   0.000000
                    CHANNELS 3 Xrotation Yrotation Zrotation
                    JOINT lElbow
                    {
                        OFFSET   0.245000   0.000000   0.000000
                        CHANNELS 3 Xrotation Yrotation Zrotation
                        JOINT lWrist
                        {
                            OFFSET   0.240000   0.000000   0.000000
                            CHANNELS 3 Xrotation Yrotation Zrotation
                            End Site
                            {
                                OFFSET   0.116353  -0.002500   0.000000
                            }
                        }
                    }
                }
            }
        }
    }
    JOINT rHip
    {
        OFFSET  -0.100000  -0.051395   0.000000
        CHANNELS 3 Xrotation Yrotation Zrotation
        JOINT rKnee
        {
            OFFSET   0.000000  -0.410000   0.000000
            CHANNELS 3 Xrotation Yrotation Zrotation
            JOINT rAnkle
            {
                OFFSET   0.000000  -0.390000   0.000000
                CHANNELS 3 Xrotation Yrotation Zrotation
                JOINT rToeJoint
                {
                    OFFSET   0.000000  -0.050000   0.130000
                    CHANNELS 3 Xrotation Yrotation Zrotation
                    End Site
                    {
                        OFFSET  -0.010000   0.002000   0.060000
                    }
                }
            }
        }
    }
    JOINT lHip
    {
        OFFSET   0.100000  -0.051395   0.000000
        CHANNELS 3 Xrotation Yrotation Zrotation
        JOINT lKnee
        {
            OFFSET   0.000000  -0.410000   0.000000
            CHANNELS 3 Xrotation Yrotation Zrotation
            JOINT lAnkle
            {
                OFFSET   0.000000  -0.390000   0.000000
                CHANNELS 3 Xrotation Yrotation Zrotation
                JOINT lToeJoint
                {
                    OFFSET   0.000000  -0.050000   0.130000
                    CHANNELS 3 Xrotation Yrotation Zrotation
                    End Site
                    {
                        OFFSET   0.010000   0.002000   0.060000
                    }
                }
            }
        }
    }
}
MOTION
Frames: 17
Frame Time:   0.008333
 -2.098020   0.823127   4.610095  57.302735 -44.740075  41.392802  75.931002  -0.102092   2.775222   2.292496  -2.009990  -5.823878  -0.201479  -4.382173 -10.100775  -7.297462  44.962713 -18.613625 -35.289603  27.546370   2.544528   0.000117   4.611445  -0.000889   0.922806   0.993762 -21.086729 -19.579575 -43.376075   7.139938 -26.108779 -25.643159  -2.198344   0.000014  -5.441209  -0.000883  -2.335658  -4.306196  18.313390 -75.305610 -16.787742  -8.517703  45.058926  -0.001131  -0.002967  -0.793111   0.447550   1.098156  -9.230802   0.000561   0.019450 -76.988268  17.597391  16.664427  54.086492   0.000106   0.000331 -20.079337  22.269431   9.910179   0.732869  -0.000043   0.000006
 -2.098351   0.823078   4.609577  57.572234 -44.792907  41.905738  75.944307  -0.077188   2.871651   2.210084  -1.942541  -5.841353  -0.235942  -4.510023 -10.110481  -7.145196  44.932948 -18.874630 -35.571003  27.646001   2.574071   0.000119   4.513975  -0.001169   0.947280   0.933686 -21.099146 -19.726868 -43.332785   6.990101 -26.162404 -25.581501  -2.279123  -0.000095  -5.549941  -0.000426  -2.348610  -4.262469  18.267512 -75.483679 -16.914488  -8.541066  45.078300  -0.000955  -0.002442  -0.871286   0.272778   1.021008  -9.115797   0.000374   0.014952 -77.037206  17.870395  16.729703  54.030685   0.000123   0.000294 -20.052458  22.354240   9.818754   0.725735  -0.000036   0.000005
 -2.098631   0.823038   4.609183  57.854518 -44.847936  42.415649  75.942933  -0.054113   2.982726   2.125787  -1.869954  -5.851717  -0.276247  -4.630915 -10.113188  -6.985939  44.911329 -19.137777 -35.834772  27.752410   2.610621   0.000110   4.426612  -0.001349   0.970536   0.881545 -21.089406 -19.858976 -43.295565   6.837755 -26.212254 -25.520162  -2.366289  -0.000160  -5.652448  -0.000062  -2.358863  -4.235455  18.218290 -75.643797 -16.995939  -8.538821  45.018274  -0.000628  -0.001767  -0.953375   0.122792   0.821795  -8.896906   0.000411   0.010988 -77.091416  18.134481  16.797516  53.980732   0.000131   0.000265 -20.036355  22.443499   9.733230   0.718188  -0.000031   0.000004
 -2.098864   0.822998   4.608919  58.139298 -44.916697  42.936984  75.938176  -0.036847   3.092997   2.045932  -1.804433  -5.855430  -0.315984  -4.743650 -10.113286  -6.830869  44.895580 -19.391849 -36.081334  27.856673   2.647200   0.000100   4.347125  -0.001459   0.996557   0.841612 -21.072087 -19.976368 -43.263660   6.692749 -26.258467 -25.465163  -2.454476  -0.000201  -5.748859   0.000229  -2.367451  -4.213826  18.158722 -75.803783 -17.103205  -8.540561  44.955648  -0.000350  -0.001200  -1.024576  -0.054906   0.643718  -8.679562   0.000365   0.007690 -77.131326  18.405988  16.860664  53.937499   0.000132   0.000242 -20.035844  22.545106   9.655496   0.710776  -0.000027   0.000003
 -2.099068   0.822957   4.608763  58.422092 -44.993229  43.453882  75.930205  -0.020380   3.206895   1.970471  -1.743736  -5.851253  -0.353921  -4.848582 -10.111916  -6.681752  44.884338 -19.634312 -36.311806  27.956484   2.682989   0.000090   4.274128  -0.001518   1.024024   0.810401 -21.052548 -20.083135 -43.235784   6.555976 -26.301378 -25.415781  -2.540178  -0.000228  -5.839518   0.000456  -2.374513  -4.196283  18.093966 -75.953245 -17.206045  -8.541958  44.892665  -0.000133  -0.000745  -1.087057  -0.226830   0.474621  -8.473745   0.000312   0.005119 -77.162292  18.674275  16.921245  53.901910   0.000127   0.000222 -20.048002  22.652785   9.585611   0.703796  -0.000023   0.000003
 -2.099253   0.822917   4.608693  58.700853 -45.073424  43.959684  75.919077  -0.004681   3.324252   1.898442  -1.687357  -5.838613  -0.389770  -4.946281 -10.109245  -6.539140  44.876573 -19.864030 -36.527195  28.050495   2.717886   0.000080   4.206525  -0.001538   1.051544   0.784115 -21.032088 -20.181874 -43.211028   6.428202 -26.341311 -25.371475  -2.621291  -0.000247  -5.924753   0.000627  -2.380145  -4.182457  18.028291 -76.091652 -17.302339  -8.541686  44.829665   0.000032  -0.000385  -1.143366  -0.388053   0.316261  -8.279240   0.000257   0.003149 -77.187317  18.935358  16.979905  53.872844   0.000118   0.000201 -20.069896  22.762736   9.522673   0.697298  -0.000020   0.000002
 -2.099427   0.822879   4.608694  58.974090 -45.154898  44.451023  75.905095   0.009621   3.444276   1.829171  -1.635504  -5.817963  -0.423475  -5.037308 -10.105582  -6.403325  44.871477 -20.080529 -36.728435  28.137959   2.751780   0.000073   4.143490  -0.001528   1.078173   0.759992 -21.011089 -20.274126 -43.188762   6.309744 -26.378556 -25.331961  -2.696780  -0.000260  -6.004945   0.000750  -2.384395  -4.172307  17.964516 -76.219571 -17.392209  -8.539490  44.767363   0.000155  -0.000105  -1.194452  -0.538734   0.168125  -8.096613   0.000205   0.001667 -77.207754  19.187468  17.036781  53.849188   0.000107   0.000180 -20.099417  22.872807   9.465917   0.691319  -0.000018   0.000002
 -2.099701   0.822699   4.608650  59.072198 -45.207781  44.825207  75.891818   0.029392   3.632377   1.814109  -1.592530  -5.754657  -0.490359  -5.137608 -10.126133  -6.249121  44.869747 -20.297392 -37.053127  28.240376   2.863884   0.000048   4.006281  -0.002032   1.069269   0.737092 -21.001991 -20.369187 -43.167004   6.165293 -26.414523 -25.307572  -2.800714  -0.000276  -6.118831   0.000960  -2.361715  -4.193676  17.929816 -76.340586 -17.496287  -8.640519  44.803178   0.000047  -0.000197  -1.374976  -0.773844  -0.010553  -7.822767   0.000222  -0.000115 -77.149054  19.460383  17.017437  53.841840   0.000088   0.000147 -20.131683  22.931798   9.405176   0.684081  -0.000016   0.000001
 -2.100047   0.822495   4.608559  59.138787 -45.259280  45.165728  75.877139   0.059634   3.825042   1.804888  -1.546074  -5.682662  -0.558257  -5.230212 -10.144108  -6.091579  44.870028 -20.501727 -37.357929  28.337704   2.980473   0.000005   3.877140  -0.002376   1.047711   0.692848 -20.982679 -20.449708 -43.148772   6.025841 -26.447629 -25.288639  -2.907618  -0.000282  -6.227826   0.001117  -2.332566  -4.236492  17.885519 -76.455274 -17.588715  -8.745484  44.867645  -0.000097  -0.000347  -1.563873  -1.006612  -0.191030  -7.569917   0.000234  -0.001366 -77.079100  19.724339  16.996819  53.842655   0.000070   0.000117 -20.164900  22.977886   9.346131   0.678291  -0.000014   0.000001
 -2.100456   0.822304   4.608428  59.199714 -45.310909  45.491581  75.860947   0.094917   4.012459   1.796581  -1.497621  -5.609643  -0.624125  -5.315870 -10.159681  -5.935818  44.871644 -20.694973 -37.642886  28.429490   3.096147  -0.000040   3.757080  -0.002578   1.025857   0.648521 -20.953197 -20.523291 -43.132465   5.893746 -26.478281 -25.271788  -3.010182  -0.000285  -6.330060   0.001218  -2.302565  -4.283484  17.836055 -76.563975 -17.673436  -8.842830  44.940750  -0.000225  -0.000480  -1.746117  -1.226017  -0.363694  -7.343301   0.000222  -0.002175 -77.006110  19.975489  16.980941  53.843123   0.000056   0.000094 -20.196115  23.021951   9.290724   0.674573  -0.000012   0.000001
 -2.100927   0.822137   4.608260  59.261133 -45.361936  45.808126  75.843523   0.132607   4.192391   1.788357  -1.448824  -5.537759  -0.686705  -5.395471 -10.173536  -5.784823  44.874127 -20.877591 -37.909214  28.515393   3.208362  -0.000081   3.645373  -0.002671   1.005324   0.607456 -20.917340 -20.592838 -43.117400   5.769512 -26.506818 -25.256232  -3.106015  -0.000288  -6.425566   0.001272  -2.273330  -4.329795  17.787001 -76.666988 -17.752509  -8.930913  45.016233  -0.000327  -0.000583  -1.919992  -1.430763  -0.527200  -7.140304   0.000193  -0.002659 -76.931929  20.213960  16.969983  53.840034   0.000046   0.000076 -20.224013  23.066482   9.238928   0.672921  -0.000010   0.000001
 -2.101455   0.821994   4.608056  59.324620 -45.411604  46.116820  75.825114   0.171357   4.364424   1.779917  -1.400701  -5.467678  -0.745585  -5.469597 -10.186063  -5.640084  44.877162 -21.049947 -38.158101  28.595342   3.315884  -0.000115   3.541286  -0.002682   0.986074   0.569372 -20.878003 -20.659417 -43.103270   5.653034 -26.533450 -25.241709  -3.194598  -0.000288  -6.514683   0.001290  -2.245255  -4.374205  17.740990 -76.764691 -17.826823  -9.009713  45.092164  -0.000406  -0.000658  -2.085788  -1.621327  -0.681717  -6.958748   0.000154  -0.002906 -76.857461  20.440140  16.963664  53.832493   0.000041   0.000062 -20.248078  23.111816   9.190138   0.673159  -0.000008   0.000001
 -2.102038   0.821876   4.607818  59.390455 -45.459380  46.417919  75.805933   0.210327   4.528650   1.771106  -1.353890  -5.399609  -0.800738  -5.538689 -10.197480  -5.502278  44.880529 -21.212472 -38.390671  28.669482   3.418141  -0.000141   3.444190  -0.002634   0.967878   0.533612 -20.837032 -20.723406 -43.089922   5.543982 -26.558336 -25.228113  -3.276115  -0.000287  -6.597810   0.001280  -2.218408  -4.416467  17.698909 -76.857414 -17.896903  -9.079548  45.168017  -0.000465  -0.000708  -2.244057  -1.798533  -0.827702  -6.797106   0.000114  -0.002982 -76.783315  20.654362  16.961693  53.820445   0.000039   0.000053 -20.268290  23.157755   9.144410   0.675228  -0.000006   0.000000
 -2.102730   0.821663   4.607562  59.408695 -45.462664  46.752340  75.823131   0.211802   4.712910   1.697842  -1.315539  -5.325187  -0.913537  -5.609645 -10.217558  -5.367000  44.884370 -21.413531 -38.754052  28.719680   3.644519  -0.000198   3.314996  -0.002885   0.912384   0.487283 -20.854751 -20.824042 -43.069768   5.377173 -26.629019 -25.222577  -3.400144  -0.000265  -6.650773   0.001146  -2.173906  -4.514693  17.690635 -77.026110 -18.025604  -9.261093  45.292633  -0.000673  -0.000974  -2.490287  -2.115899  -1.038070  -6.551920   0.000137  -0.003903 -76.688022  20.955702  16.902737  53.793303   0.000043   0.000040 -20.287793  23.166865   9.101901   0.677530  -0.000005   0.000000
 -2.103536   0.821428   4.607250  59.438873 -45.459959  47.105435  75.841778   0.223611   4.887204   1.619057  -1.273258  -5.257790  -1.027941  -5.674917 -10.235264  -5.237629  44.888304 -21.611719 -39.095024  28.768410   3.856063  -0.000248   3.193895  -0.003022   0.848429   0.425854 -20.874077 -20.917469 -43.051143   5.213357 -26.695299 -25.212836  -3.520754  -0.000244  -6.697860   0.001029  -2.136195  -4.600047  17.684510 -77.213451 -18.156725  -9.432553  45.435554  -0.000908  -0.001248  -2.752652  -2.413232  -1.244816  -6.310705   0.000094  -0.004586 -76.599474  21.260611  16.848129  53.769596   0.000047   0.000030 -20.308552  23.177993   9.057913   0.681733  -0.000005   0.000000
 -2.104456   0.821209   4.606892  59.483802 -45.455047  47.467361  75.862003   0.246357   5.051385   1.543612  -1.225085  -5.197393  -1.136283  -5.735280 -10.250867  -5.114633  44.892215 -21.805727 -39.414012  28.817345   4.051746  -0.000292   3.082378  -0.003056   0.788011   0.370343 -20.895017 -21.007101 -43.033353   5.055838 -26.756912 -25.199606  -3.633563  -0.000223  -6.740043   0.000929  -2.103120  -4.672000  17.678656 -77.402374 -18.278177  -9.590228  45.583251  -0.001106  -0.001467  -3.013672  -2.697140  -1.448177  -6.090446   0.000049  -0.004961 -76.514859  21.555141  16.801206  53.744243   0.000053   0.000023 -20.328727  23.196040   9.016498   0.688791  -0.000006   0.000000
 -2.105484   0.820988   4.606524  59.544684 -45.457667  47.833949  75.884864   0.279071   5.204317   1.476358  -1.171127  -5.145369  -1.237096  -5.791382 -10.265042  -4.995882  44.896130 -21.994657 -39.712350  28.866646   4.234430  -0.000330   2.980092  -0.003013   0.733238   0.325773 -20.915716 -21.093844 -43.016192   4.903559 -26.814144 -25.182804  -3.738688  -0.000202  -6.777668   0.000839  -2.074195  -4.731704  17.674473 -77.585280 -18.393598  -9.729527  45.739392  -0.001280  -0.001657  -3.272801  -2.961518  -1.644222  -5.894000   0.000003  -0.005075 -76.435051  21.840764  16.775851  53.714414   0.000063   0.000016 -20.274548  23.232052   8.965470   0.326543   0.000176  -0.000026
